<?xml version="1.0" standalone="no"?>
<!DOCTYPE svg PUBLIC "-//W3C//DTD SVG 20010904//EN"
 "http://www.w3.org/TR/2001/REC-SVG-20010904/DTD/svg10.dtd">
<svg version="1.0" xmlns="http://www.w3.org/2000/svg"
 width="128.000000pt" height="128.000000pt" viewBox="0 0 128.000000 128.000000"
 preserveAspectRatio="xMidYMid meet">

<g transform="translate(0.000000,128.000000) scale(0.100000,-0.100000)"
fill="#000000" stroke="none">
<path d="M930 1225 c-55 -18 -95 -48 -86 -64 5 -8 15 -6 35 8 15 11 40 23 57
26 16 4 37 9 47 12 21 5 47 -49 47 -99 0 -23 3 -29 11 -21 8 8 36 -3 103 -44
50 -30 101 -64 114 -76 21 -20 22 -20 22 -1 0 37 -58 116 -112 156 -41 29 -34
4 13 -47 23 -25 39 -48 36 -51 -7 -7 -148 78 -165 98 -5 7 -13 28 -17 46 -6
30 -5 32 20 32 30 0 95 -31 114 -54 15 -17 41 -22 41 -7 0 14 -61 62 -97 77
-51 22 -133 25 -183 9z"/>
<path d="M175 1206 c-54 -25 -103 -70 -87 -80 5 -3 26 8 47 24 34 27 103 55
113 46 2 -2 -1 -21 -7 -42 -9 -34 -20 -45 -91 -87 -45 -27 -84 -46 -88 -43 -3
4 13 26 36 49 53 54 55 79 3 38 -43 -35 -101 -118 -101 -146 0 -17 1 -17 13
-3 13 17 184 124 206 130 8 2 18 -15 27 -47 18 -68 17 -75 -6 -75 -32 0 -92
-28 -122 -57 -26 -25 -36 -25 -70 -1 -29 21 -34 -2 -5 -25 25 -20 26 -25 17
-57 -5 -19 -10 -51 -9 -70 1 -36 3 -34 13 12 9 38 61 95 110 120 82 43 235 18
296 -47 13 -14 31 -48 42 -77 l19 -53 -4 51 c-2 29 -13 69 -24 90 -26 52 -101
102 -164 110 -27 4 -49 10 -49 13 0 4 15 21 33 37 64 60 59 60 121 5 31 -27
88 -65 126 -85 l69 -37 76 41 c41 23 97 62 125 87 l50 45 55 -49 c58 -51 57
-54 -5 -67 -14 -3 -46 -18 -71 -34 -53 -34 -81 -84 -86 -157 l-4 -50 19 53
c10 28 28 62 38 73 70 78 259 92 334 25 37 -33 51 -52 66 -93 11 -32 13 -34
14 -13 0 14 -5 43 -11 65 -11 37 -10 40 17 62 29 23 26 46 -4 25 -34 -24 -42
-23 -80 7 -26 22 -58 35 -100 43 -53 10 -61 14 -56 30 4 12 1 16 -8 13 -8 -3
-38 15 -67 40 l-53 46 -57 -54 c-31 -29 -86 -68 -124 -87 l-67 -35 -67 35
c-37 19 -92 59 -124 88 l-57 53 -52 -46 c-28 -25 -55 -45 -61 -45 -26 0 -37
95 -18 164 l11 38 45 -6 c25 -3 61 -15 80 -27 37 -23 54 -19 32 7 -45 55 -170
70 -254 30z"/>
<path d="M1137 742 c-8 -41 -41 -61 -121 -75 -85 -14 -117 -4 -132 43 l-11 34
-27 -40 c-50 -76 -61 -174 -27 -230 19 -31 80 -84 97 -84 5 0 -8 11 -29 25
-44 31 -46 43 -9 78 34 33 44 34 57 5 6 -15 24 -26 47 -32 51 -13 110 2 123
32 14 31 39 27 69 -10 l25 -33 16 37 c32 77 14 187 -39 246 l-33 35 -6 -31z"/>
<path d="M420 741 c0 -29 -53 -68 -110 -80 -97 -21 -132 -11 -153 42 l-13 32
-27 -41 c-52 -78 -63 -181 -26 -241 20 -33 83 -83 104 -83 5 0 -6 10 -25 21
-60 36 -62 49 -19 90 35 32 49 36 49 14 0 -44 129 -67 170 -30 11 10 20 24 20
32 0 23 27 14 54 -18 21 -25 24 -34 15 -52 -10 -22 -10 -22 7 -2 29 36 44 83
44 143 0 69 -13 114 -47 160 -27 36 -43 41 -43 13z"/>
<path d="M1169 433 c-13 -16 -12 -17 4 -4 16 13 21 21 13 21 -2 0 -10 -8 -17
-17z"/>
<path d="M625 411 c-3 -5 -1 -12 5 -16 5 -3 10 1 10 9 0 18 -6 21 -15 7z"/>
<path d="M506 290 c-15 -76 55 -129 104 -80 11 11 22 20 25 20 3 0 14 -9 25
-20 27 -27 62 -25 88 3 23 24 29 71 12 97 -7 11 -10 3 -10 -31 0 -50 -13 -69
-46 -69 -28 0 -54 35 -54 72 0 38 -16 35 -24 -4 -19 -96 -118 -88 -103 8 7 42
-8 45 -17 4z"/>
</g>
</svg>
